<svg width="128" height="128" viewBox="0 0 128 128" fill="none" xmlns="http://www.w3.org/2000/svg">
<g clip-path="url(#clip0_1_2)">
<path d="M64 0C51.342 0 38.9683 3.75353 28.4435 10.7859C17.9188 17.8184 9.71575 27.8138 4.87174 39.5083C0.02773 51.2027 -1.23968 64.071 1.22977 76.4858C3.69922 88.9006 9.79463 100.304 18.7452 109.255C27.6958 118.205 39.0995 124.301 51.5143 126.77C63.929 129.24 76.7973 127.972 88.4918 123.128C100.186 118.284 110.182 110.081 117.214 99.5565C124.246 89.0317 128 76.658 128 64C127.982 47.0318 121.233 30.7639 109.234 18.7656C97.2361 6.76732 80.9682 0.0185286 64 0ZM64 122C52.5287 122 41.315 118.598 31.777 112.225C22.2389 105.852 14.8049 96.7938 10.415 86.1956C6.02513 75.5975 4.87654 63.9357 7.11448 52.6848C9.35243 41.4339 14.8764 31.0993 22.9878 22.9878C31.0993 14.8764 41.4339 9.3524 52.6848 7.11445C63.9357 4.87651 75.5976 6.0251 86.1957 10.415C96.7938 14.8049 105.852 22.2389 112.225 31.7769C118.598 41.315 122 52.5287 122 64C121.982 79.3769 115.865 94.1186 104.992 104.992C94.1187 115.865 79.3769 121.981 64 122Z" fill="black"/>
<path d="M41.1948 35.88C40.6261 35.3501 39.874 35.0616 39.0967 35.0753C38.3195 35.089 37.578 35.4039 37.0283 35.9535C36.4787 36.5032 36.1638 37.2447 36.1501 38.0219C36.1364 38.7991 36.4249 39.5513 36.9548 40.12L60.8348 64L36.9548 87.88C36.6601 88.1546 36.4237 88.4858 36.2597 88.8538C36.0957 89.2218 36.0076 89.6191 36.0005 90.0219C35.9934 90.4247 36.0675 90.8248 36.2183 91.1984C36.3692 91.5719 36.5938 91.9113 36.8787 92.1962C37.1636 92.481 37.5029 92.7056 37.8764 92.8565C38.25 93.0074 38.6501 93.0815 39.0529 93.0744C39.4557 93.0673 39.853 92.9791 40.221 92.8151C40.589 92.6512 40.9202 92.4147 41.1948 92.12L67.1948 66.12C67.7566 65.5575 68.0722 64.795 68.0722 64C68.0722 63.205 67.7566 62.4425 67.1948 61.88L41.1948 35.88Z" fill="black"/>
<path d="M65.2697 35.8052C64.701 35.2753 63.9488 34.9868 63.1716 35.0005C62.3944 35.0142 61.6528 35.329 61.1032 35.8787C60.5535 36.4283 60.2387 37.1699 60.225 37.9471C60.2113 38.7243 60.4997 39.4765 61.0297 40.0452L84.9097 63.9252L61.0297 87.8052C60.7349 88.0798 60.4985 88.411 60.3345 88.779C60.1706 89.147 60.0824 89.5443 60.0753 89.9471C60.0682 90.3499 60.1423 90.75 60.2932 91.1236C60.4441 91.4971 60.6686 91.8364 60.9535 92.1213C61.2384 92.4062 61.5777 92.6308 61.9513 92.7817C62.3248 92.9325 62.7249 93.0066 63.1278 92.9995C63.5306 92.9924 63.9278 92.9043 64.2958 92.7403C64.6638 92.5763 64.995 92.3399 65.2697 92.0452L91.2697 66.0452C91.8315 65.4827 92.147 64.7202 92.147 63.9252C92.147 63.1302 91.8315 62.3677 91.2697 61.8052L65.2697 35.8052Z" fill="black"/>
</g>
<defs>
<clipPath id="clip0_1_2">
<rect width="128" height="128" fill="white"/>
</clipPath>
</defs>
</svg>
